<svg xmlns="http://www.w3.org/2000/svg" viewBox="0 0 812.08 92.65"><title>wordmark</title><g id="Layer_2" data-name="Layer 2"><g id="Layer_1-2" data-name="Layer 1"><path d="M330.51,39.34c-3.83.12-7.66.29-11.49.33-1.82,0-3.65-.24-5.47-.31a6.22,6.22,0,0,0-2.18.21Q289,47.09,266.74,54.67c-6.28,2.12-12.55,4.31-18.89,6.25a17.49,17.49,0,0,1-6.21.67c-4.52-.31-6.58-3.06-6-7.53,0-.32,0-.63.09-1.27-2.65,1.67-5,3.39-7.56,4.71a50.94,50.94,0,0,1-9.81,4.24,13.91,13.91,0,0,1-7.13-.39c-3.69-1.07-5.54-4.31-5.35-8.17,0-.6.08-1.19.15-2-14.5,4.08-28.79,8-42.49,14.05.37,2.65.83,5.23,1.09,7.84.68,6.88-1.39,12.68-7.4,16.48a18.75,18.75,0,0,1-19.18,1c-3.45-1.68-4.51-4.92-2.78-8.4A17.1,17.1,0,0,1,138.87,77c4.06-3.66,8.36-7,12.78-10.73C148.28,52,142.2,37.54,145.2,21.75c-.2,0-.43,0-.56.14C131.86,32.65,117.4,40.82,102.7,48.56a545.57,545.57,0,0,1-64,29,106,106,0,0,1-25.29,5.84A12.64,12.64,0,0,1,10,83.35c-7.41-1.24-10.08-4.6-10-11A29.69,29.69,0,0,1,4.23,56.66c2.32-3.68,5.45-6.25,10.23-5.6a3.65,3.65,0,0,1,1.37.31,18.21,18.21,0,0,1,1.85,1.45c-.48.6-.84,1.41-1.45,1.76C8.91,58.74,6.67,65.9,5.69,73.43c-.74,5.68,2.51,8.18,8.22,7.39,13.56-1.87,26.26-6.5,38.73-11.9,22.65-9.8,44.92-20.36,66.09-33.11,10.78-6.5,20.91-13.83,29.6-23,1.34-1.41,4.14-1.7,6.28-.81s2.3,2.54,2,4.39c-1.8,13.1,1.94,25.55,4.4,38.15.44,2.26,1,4.49,1.5,6.82a3,3,0,0,0,.83-.06C176.85,55.79,191,52.47,205,48.63a5.2,5.2,0,0,0,3.33-2.33c3.24-5,8.19-7.25,13.93-7.49A28.42,28.42,0,0,1,231,39.88c3.5,1,5.89,3.49,6.9,7.52a11.15,11.15,0,0,1,1.26-2.17c1-1,1.94-2.37,3.13-2.64a7.64,7.64,0,0,1,4.58.73c.38.18.09,2.34-.27,3.47-1,3-2.19,6-3.22,9a27.1,27.1,0,0,0-.66,3.58c2.76-.64,5.11-1,7.32-1.73,10.52-3.54,21-7.23,31.52-10.79,8.78-3,17.6-5.87,26.09-8.69-.81-1.5-2.31-3-2.13-4.26a9.63,9.63,0,0,1,2.77-4.93c3.7-3.75,10.33-4.85,14.73-2.76,3,1.44,3.51,3.41,1.35,5.93a19.06,19.06,0,0,1-2.81,2.63,29,29,0,0,0-3.2,2.44c2.78,0,5.57.07,8.34-.07s5.8-.51,8.7-.77a3.39,3.39,0,0,1,1.21,0c1.19.36,2.35.8,3.52,1.21a32,32,0,0,1-1.54,3.11c-4,6.34-8.11,12.65-12.12,19a55,55,0,0,0-2.74,5,27,27,0,0,0-1.09,3.2,19.92,19.92,0,0,0,3.29-.31c5-1.39,9.88-2.87,14.83-4.29,12.11-3.49,24.22-6.94,36.31-10.5a11,11,0,0,0,4-2.2c4.49-3.92,9.52-6,15.51-4.85A12.7,12.7,0,0,1,401,47.42c1.6,1,1.37,2.4-.27,3.31-1.94,1.09-3.38.76-4.9-1a1.59,1.59,0,0,0-1.34-.41c-3.27.9-11,8.86-11.86,12.35.87-.29,1.62-.49,2.32-.79,4.35-1.88,8.7-3.76,13-5.72a7.55,7.55,0,0,0,1.8-1.56c1.27-1.21,2.36-2.71,3.84-3.56a8.25,8.25,0,0,1,4.41-.89c2.06.13,2.16,1,1.14,2.84C407,56,405,60,403,64.07a5.54,5.54,0,0,0-.2,1.32c1.71-.44,3.2-.76,4.65-1.21,10.62-3.24,21.23-6.52,31.87-9.73,1.46-.44,3.07-1.13,4.92.44a19.16,19.16,0,0,1-2.42,1.2c-10.57,3.39-21.14,6.8-31.74,10.09a49.17,49.17,0,0,1-7.51,1.59,7.88,7.88,0,0,1-3.39-.47c-3.2-1-4.09-2.86-3.13-6.09.15-.51.28-1,.54-2-.92.42-1.54.72-2.17,1-3,1.23-6,2.65-9,3.58a12.53,12.53,0,0,1-5.59.27c-3.5-.61-4.78-3.13-3.66-6.53.23-.68.53-1.34.95-2.36-2.25.62-4.18,1.12-6.09,1.7-12.63,3.84-25.23,7.79-37.91,11.48a42.71,42.71,0,0,1-10.94,1.8c-5.3.1-7.29-2.63-6.05-7.74,2.07-8.55,6.73-15.6,13.1-21.57a8.57,8.57,0,0,1,1.75-1ZM152.83,70.93A83.8,83.8,0,0,0,146,76.59,37.84,37.84,0,0,0,141.14,83a4,4,0,0,0,.37,4.94,4.72,4.72,0,0,0,4.82,1.44,8.62,8.62,0,0,0,6.17-5.13A16.55,16.55,0,0,0,152.83,70.93Zm79.8-19.68a13.49,13.49,0,0,0-6.13-6.33,1.93,1.93,0,0,0-1.49-.08,21.64,21.64,0,0,0-10.28,11.55c-.84,2.28.46,3.61,2.61,2.61C222.52,56.57,227.55,53.84,232.63,51.25Zm81-15.95c4.29-1.45,6.78-4.37,5.92-6.79C316.65,29.79,315,32.08,313.64,35.3Z"/><path d="M636.59,68c-2.16,2-4.27,3.2-7,3-1.91-.15-2.8-1.09-2.47-3.09.42-2.5.75-5,1.28-8.57-1.85,1.24-2.91,2-4,2.69C617.64,65.92,611,70,604.12,73.57A20.09,20.09,0,0,1,596,75.51c-5.06.24-7-2.47-6-7.51a16.1,16.1,0,0,0,.1-1.74c-3,1.29-5.61,2.62-8.36,3.55a60.09,60.09,0,0,1-10.58,2.91c-3.58.51-7.2,0-8.78-4.54-1.4.44-2.73.81-4,1.26-6.81,2.38-13.55,5-20.44,7.09a73.23,73.23,0,0,1-11.2,2.13,11.4,11.4,0,0,1-4.19-.41c-3.23-.78-4.39-2.36-3.58-5.55a88.59,88.59,0,0,1,3.23-9.18c.77-2.07,1.66-4.09,2.64-6.48a9.32,9.32,0,0,0-6.49,1.29c-6,3.15-11.87,6.57-17.89,9.7a11.88,11.88,0,0,1-5.52,1.5c-2.85-.08-3.76-1.29-3.27-4.21.76-4.6,1.88-9.14,2.85-13.7.23-1.08.45-2.17.77-3.73-3.43,1.15-6.4,2.27-9.46,3.13-2.85.81-5.74,2.29-9.49.31,1.29-.52,2-.82,2.67-1.07q7.38-2.64,14.76-5.25c2.07-.73,3-2.17,3.57-4.29,2.26-7.88,4.66-15.73,7.27-23.5a34.22,34.22,0,0,1,7.79-13A12.5,12.5,0,0,1,521.76.15c5.17.05,8.52,3,8.33,8.1A26.77,26.77,0,0,1,527.67,18C524,26.17,518,32.6,511.09,38.14A10.81,10.81,0,0,0,507,44.71c-1.23,5.64-2.86,11.18-4.46,17.27,1.21-.47,2.06-.75,2.88-1.11,4.78-2.12,9.44-4.54,14.36-6.26a19.3,19.3,0,0,1,8.33-.66c4.15.48,5.52,3.06,4,7-1.54,4.1-3.37,8.1-5,12.15-.31.76-.49,1.57-.89,2.9a30.42,30.42,0,0,0,4.83-.56c5.29-1.53,10.56-3.17,15.81-4.85,2.69-.86,5.3-2,8-2.78,5.24-1.49,9.72-3.58,12.9-8.59,2.93-4.63,7.78-7.34,13.41-8.14.7-.1,1.4-.22,2.1-.25,6.92-.31,9.81,1.88,11.24,8.5,4.8-3.41,5.77-3.54,9.62-.92l-7.43,13.67c1.89,1.17,3.27.08,4.58-.44,8.51-3.35,15.92-8.57,23.21-14a10,10,0,0,1,1-.78C628.94,55,630,52,630.25,48.12c.45-8.49,1.31-17,4-25.07a74.46,74.46,0,0,1,6.51-14.2,21.62,21.62,0,0,1,7.11-7.08c7.19-4.37,14.53-.26,15.15,8.08.39,5.29-1.32,10.07-3.63,14.65a78.42,78.42,0,0,1-17.52,23.28,13.5,13.5,0,0,0-4.82,10.48c1.64.33,2.46-1.06,3.53-1.74,4.39-2.79,9-4.68,14.34-4.54,8.23.21,11.72,5.38,8.89,13.16-.37,1-.83,2-1.54,3.65,13.1-2.07,25.72-3.17,38.15-6.74a17.93,17.93,0,0,0-.23-2.27c-1.39-5.66.86-10,5.1-13.46A14.33,14.33,0,0,1,720.13,44c4.89,1.83,6,6.48,2.7,10.61-2.47,3.07-5.86,4.84-9.38,6.39-1.53.67-3.08,1.3-4.54,1.92.32,4.53.87,5.51,4.79,5.68A56.33,56.33,0,0,0,726.76,68c11-2.12,20.72-7.34,29.56-14.21a5.12,5.12,0,0,0,2.13-5.38c-1.73-14.47,1.92-27.77,9.61-40a21.14,21.14,0,0,1,5.51-5.79A13.47,13.47,0,0,1,780.14.06c6.73-.41,11.45,3,10.28,10.45a42.48,42.48,0,0,1-3.79,11.18,104.62,104.62,0,0,1-17.2,25.14,7.11,7.11,0,0,0-1.8,7.27A34.2,34.2,0,0,0,777.7,71a8.74,8.74,0,0,0,7.8,2.32,21.39,21.39,0,0,0,12.09-6.56A45.14,45.14,0,0,0,807.1,51.8c.43-1,.83-2.06,1.22-3,3.91.47,4.36,1,3.21,4a42.92,42.92,0,0,1-11.87,17.84c-7.19,6.23-19.11,8.25-27.9.27a55.15,55.15,0,0,1-6.44-6.72,96.11,96.11,0,0,1-5.2-8.16c-.85.49-1.81,1-2.68,1.57A82.74,82.74,0,0,1,731.53,70a44.43,44.43,0,0,1-17.67,1.13c-4.42-.62-8.61-1.87-11.57-6-4.37.79-8.77,1.67-13.2,2.39-9.21,1.49-18.44,2.88-27.65,4.36a41.39,41.39,0,0,0-6.19,1.4C647.92,75.62,641.57,74.65,636.59,68ZM654.13,3.39c-10.37,11.79-12,25.93-14.29,39.95.48.07.69.16.75.09,8.11-8.18,14.27-17.54,16.73-28.94C658.13,10.83,657.18,7.23,654.13,3.39ZM784,3.89c-6.17,3.53-16.61,28.28-16,38.07,7.52-9.22,14-18.5,17.17-29.72C786,9.52,786.08,6.68,784,3.89ZM654.54,55c-5.84.52-10.07,3.48-14.37,7.37a56.77,56.77,0,0,0,4,6.67c1.87,2.34,4.81,2.32,7.09.35C654.78,66.29,656.3,60.22,654.54,55ZM510.64,32.8c6.17-5.34,11-11.49,13.26-19.31.9-3.13,1.14-6.38-1.71-9.58C515,12.39,513.55,22.89,510.64,32.8ZM585.14,55c-6.22,3.14-9.76,8.84-14.15,14.34,4.21.08,13.4-3.29,17.26-6.09C588,58.44,587.92,58.24,585.14,55Zm124.16,3.33c7.75-3.19,10.35-6.61,8.84-11.3C713.51,49.18,711.51,53.19,709.31,58.33Z"/></g></g></svg>